<?xml version="1.0" encoding="UTF-8"?>
<svg width="256" height="256" version="1.1" viewBox="0 0 256 256" xmlns="http://www.w3.org/2000/svg">
 <defs>
  <linearGradient id="back" x2="0" y2="1">
   <stop stop-color="#5cbcff" offset="0"/>
   <stop stop-color="#2a90e6" offset="1"/>
  </linearGradient>
  <linearGradient id="front" x2="0" y2="1">
   <stop stop-color="#3fa4f5" offset="0"/>
   <stop stop-color="#166fc2" offset="1"/>
  </linearGradient>
 </defs>
 <path d="m20 212v-162a10 10 0 0 1 10-10h70l31 30h105v142a4 4 0 0 1-4 4h-208a4 4 0 0 1-4-4z" fill="url(#back)"/>
 <path d="m52 54q0-11 10-11h34l14 15v102q0 10-10 10h-38q-10 0-10-10z" fill="#ffc94d"/>
 <path d="m96 43 14 15h-14z" fill="#e0a52e"/>
 <path d="m146 54q0-11 10-11h33l15 15v102q0 10-10 10h-38q-10 0-10-10z" fill="#ff7aa8"/>
 <path d="m189 43 15 15h-15z" fill="#e0537f"/>
 <path d="m93 39q0-10 10-10h40l14 14v103q0 10-10 10h-44q-10 0-10-10z" fill="#3ddbb0"/>
 <path d="m143 29 14 14h-14z" fill="#22b391"/>
 <path d="m20 70h216v142a4 4 0 0 1-4 4h-208a4 4 0 0 1-4-4v-142z" fill="url(#front)"/>
</svg>
